<svg width="30" height="30" viewBox="0 0 30 30" fill="none" xmlns="http://www.w3.org/2000/svg">
<path d="M24.0375 19.075L20.8625 18.7125C20.4892 18.6686 20.1108 18.7099 19.7557 18.8333C19.4006 18.9567 19.0782 19.159 18.8125 19.425L16.5125 21.725C12.9642 19.9199 10.0801 17.0357 8.275 13.4875L10.5875 11.175C11.125 10.6375 11.3875 9.88745 11.3 9.12495L10.9375 5.97495C10.8669 5.36507 10.5743 4.80248 10.1156 4.39445C9.65683 3.98641 9.06397 3.76145 8.45001 3.76245H6.28751C4.87501 3.76245 3.70001 4.93745 3.78751 6.34995C4.45 17.025 12.9875 25.55 23.65 26.2125C25.0625 26.3 26.2375 25.125 26.2375 23.7125V21.55C26.25 20.2875 25.3 19.225 24.0375 19.075Z" fill="white"/>
</svg>
